<svg width="34" height="33" viewBox="0 0 34 33" fill="none" xmlns="http://www.w3.org/2000/svg">
<path d="M12.5871 14.7288C12.5871 14.7288 11.0943 14.6216 10.7117 14.239C10.3292 13.8564 10.3292 13.2361 10.7117 12.8535C11.0943 12.4709 11.7147 12.4709 12.0972 12.8535C12.4798 13.2361 12.5871 14.7288 12.5871 14.7288Z" fill="#FCC436"/>
<mask id="path-2-outside-1_15_1134" maskUnits="userSpaceOnUse" x="4.13391" y="-0.0383492" width="27" height="16" fill="black">
<rect fill="white" x="4.13391" y="-0.0383492" width="27" height="16"/>
<path d="M9.38217 12.3657L10.3803 7.83557C10.3803 7.83557 6.618 7.52844 7.19386 4.18844C7.19386 4.18844 12.0695 5.80088 13.4516 4.41877C13.4516 4.41877 16.507 1.15431 21.385 4.39775C23.0126 5.47998 27.6428 4.16743 27.6428 4.16743C28.2186 7.50742 24.4563 7.81456 24.4563 7.81456L25.4545 12.3447"/>
</mask>
<path d="M6.729 11.7811C6.40614 13.2464 7.33227 14.696 8.79757 15.0189C10.2629 15.3417 11.7125 14.4156 12.0353 12.9503L6.729 11.7811ZM10.3803 7.83557L13.0335 8.42017C13.2023 7.65404 13.0317 6.85233 12.5656 6.22132C12.0994 5.59031 11.3833 5.1916 10.6014 5.12777L10.3803 7.83557ZM7.19386 4.18844L8.04691 1.60902C7.29611 1.36073 6.4744 1.45188 5.79627 1.85867C5.11814 2.26547 4.65091 2.94754 4.51655 3.72683L7.19386 4.18844ZM13.4516 4.41877L15.3727 6.33981C15.3939 6.31865 15.4147 6.29714 15.4351 6.2753L13.4516 4.41877ZM21.385 4.39775L22.8893 2.13542L22.8893 2.1354L21.385 4.39775ZM27.6428 4.16743L30.3201 3.70582C30.1892 2.94668 29.7422 2.2788 29.0903 1.86836C28.4384 1.45792 27.6429 1.34351 26.9018 1.55361L27.6428 4.16743ZM24.4563 7.81456L24.2352 5.10675C23.4533 5.17058 22.7372 5.5693 22.271 6.20031C21.8049 6.83132 21.6343 7.63303 21.8031 8.39916L24.4563 7.81456ZM22.8013 12.9293C23.1242 14.3946 24.5737 15.3207 26.0391 14.9979C27.5044 14.675 28.4305 13.2254 28.1076 11.7601L22.8013 12.9293ZM12.0353 12.9503L13.0335 8.42017L7.72717 7.25098L6.729 11.7811L12.0353 12.9503ZM10.3803 7.83557C10.6014 5.12777 10.6026 5.12786 10.6037 5.12796C10.6041 5.12799 10.6052 5.12808 10.606 5.12815C10.6074 5.12827 10.6089 5.12839 10.6102 5.12851C10.613 5.12874 10.6155 5.12896 10.6179 5.12917C10.6226 5.12959 10.6265 5.12995 10.6297 5.13026C10.636 5.13087 10.6394 5.13124 10.6401 5.13132C10.6413 5.13145 10.632 5.13043 10.614 5.12779C10.5769 5.12236 10.5096 5.11105 10.4245 5.09098C10.2379 5.04703 10.052 4.98128 9.91484 4.90324C9.78239 4.82787 9.79827 4.80108 9.83421 4.86701C9.89051 4.9703 9.81812 4.95776 9.87117 4.65005L4.51655 3.72683C4.28167 5.08912 4.46362 6.36748 5.0634 7.46773C5.64282 8.53062 6.49131 9.20686 7.22746 9.62577C7.95893 10.042 8.67755 10.2618 9.17844 10.3798C9.43702 10.4407 9.65916 10.4795 9.8256 10.5039C9.90932 10.5162 9.98032 10.525 10.0364 10.5313C10.0644 10.5344 10.0889 10.5369 10.1094 10.5389C10.1197 10.5399 10.129 10.5408 10.1373 10.5415C10.1415 10.5419 10.1454 10.5422 10.1491 10.5425C10.1509 10.5427 10.1527 10.5428 10.1544 10.543C10.1552 10.543 10.1565 10.5431 10.1569 10.5432C10.1581 10.5433 10.1593 10.5434 10.3803 7.83557ZM7.19386 4.18844C6.34082 6.76786 6.34127 6.76801 6.34174 6.76816C6.34192 6.76822 6.3424 6.76838 6.34276 6.7685C6.34349 6.76874 6.34429 6.769 6.34516 6.76929C6.34691 6.76987 6.34896 6.77054 6.35131 6.77131C6.35602 6.77285 6.36191 6.77478 6.36897 6.77707C6.38308 6.78165 6.40186 6.7877 6.42504 6.79508C6.47137 6.80982 6.53544 6.82991 6.61514 6.85416C6.77426 6.90258 6.99737 6.96813 7.26744 7.04123C7.80167 7.18584 8.54757 7.36764 9.36082 7.50224C10.1525 7.63328 11.123 7.73954 12.0705 7.67672C12.9165 7.62063 14.3145 7.39811 15.3727 6.33981L11.5305 2.49773C11.8977 2.13048 12.1679 2.2247 11.711 2.255C11.3557 2.27856 10.8481 2.24086 10.2481 2.14155C9.66967 2.04581 9.11028 1.91089 8.68712 1.79635C8.47851 1.73988 8.30991 1.69025 8.19699 1.65589C8.14067 1.63875 8.09864 1.62554 8.07288 1.61734C8.06001 1.61325 8.05124 1.61042 8.04681 1.60898C8.04461 1.60826 8.04349 1.6079 8.04349 1.6079C8.04349 1.6079 8.04378 1.60799 8.04434 1.60818C8.04463 1.60827 8.04498 1.60839 8.04541 1.60853C8.04562 1.6086 8.046 1.60872 8.0461 1.60876C8.0465 1.60889 8.04691 1.60902 7.19386 4.18844ZM13.4516 4.41877C15.4351 6.2753 15.434 6.27654 15.4328 6.27776C15.4325 6.27816 15.4313 6.27938 15.4306 6.28016C15.4291 6.28174 15.4276 6.28327 15.4262 6.28476C15.4234 6.28773 15.4208 6.29053 15.4183 6.29315C15.4133 6.29839 15.4089 6.30294 15.4051 6.30682C15.3975 6.31458 15.3923 6.31971 15.3895 6.32248C15.3839 6.32797 15.3874 6.32426 15.3997 6.3133C15.4248 6.29095 15.4824 6.24204 15.5694 6.18076C15.747 6.05568 16.0189 5.8991 16.3673 5.79493C16.9483 5.62124 18.0975 5.47439 19.8808 6.66011L22.8893 2.1354C19.7946 0.0776772 16.9771 -0.0586669 14.8108 0.589005C13.7856 0.895525 12.9888 1.35234 12.4411 1.73799C12.1655 1.93208 11.9462 2.11287 11.7851 2.25637C11.7043 2.32834 11.6374 2.3916 11.5847 2.44332C11.5583 2.46921 11.5354 2.49228 11.516 2.51219C11.5063 2.52215 11.4974 2.53133 11.4894 2.53968C11.4854 2.54386 11.4817 2.54783 11.4781 2.55159C11.4763 2.55347 11.4746 2.5553 11.4729 2.55708C11.4721 2.55796 11.4709 2.55926 11.4705 2.5597C11.4693 2.56098 11.4681 2.56224 13.4516 4.41877ZM19.8807 6.66009C20.914 7.34716 22.1169 7.49678 22.9301 7.53252C23.8254 7.57187 24.7393 7.48692 25.5054 7.37837C26.2857 7.2678 26.9955 7.12048 27.5053 7.00271C27.7625 6.94332 27.9741 6.89018 28.1249 6.85095C28.2004 6.8313 28.2609 6.81505 28.3046 6.80314C28.3265 6.79718 28.3442 6.7923 28.3574 6.78862C28.3641 6.78678 28.3696 6.78523 28.374 6.784C28.3762 6.78338 28.3781 6.78284 28.3797 6.78238C28.3805 6.78215 28.3813 6.78194 28.3819 6.78175C28.3823 6.78166 28.3827 6.78153 28.3829 6.78148C28.3833 6.78136 28.3837 6.78125 27.6428 4.16743C26.9018 1.55361 26.9022 1.5535 26.9025 1.5534C26.9026 1.55337 26.903 1.55327 26.9032 1.55322C26.9036 1.55311 26.9039 1.55302 26.9041 1.55295C26.9046 1.55281 26.9049 1.55274 26.9048 1.55275C26.9048 1.55277 26.9036 1.55309 26.9014 1.5537C26.8971 1.55491 26.8885 1.55727 26.8761 1.56066C26.8512 1.56745 26.8107 1.57835 26.7564 1.59248C26.6476 1.6208 26.4848 1.66175 26.2824 1.70849C25.8732 1.80301 25.3238 1.91619 24.7431 1.99849C24.1481 2.08279 23.5994 2.12306 23.1687 2.10414C22.6561 2.08161 22.6698 1.98946 22.8893 2.13542L19.8807 6.66009ZM24.9655 4.62904C25.0185 4.93674 24.9461 4.94928 25.0024 4.84599C25.0384 4.78006 25.0542 4.80685 24.9218 4.88223C24.7847 4.96026 24.5987 5.02602 24.4121 5.06997C24.327 5.09003 24.2597 5.10134 24.2226 5.10678C24.2046 5.10942 24.1953 5.11044 24.1966 5.1103C24.1972 5.11023 24.2006 5.10985 24.2069 5.10924C24.2101 5.10894 24.214 5.10857 24.2187 5.10816C24.2211 5.10795 24.2236 5.10772 24.2264 5.10749C24.2278 5.10737 24.2292 5.10725 24.2307 5.10713C24.2314 5.10707 24.2325 5.10697 24.2329 5.10694C24.2341 5.10685 24.2352 5.10675 24.4563 7.81456C24.6773 10.5224 24.6785 10.5223 24.6798 10.5222C24.6802 10.5221 24.6814 10.522 24.6823 10.522C24.684 10.5218 24.6857 10.5217 24.6876 10.5215C24.6912 10.5212 24.6951 10.5209 24.6993 10.5205C24.7076 10.5198 24.7169 10.5189 24.7272 10.5179C24.7477 10.5159 24.7722 10.5134 24.8002 10.5103C24.8563 10.504 24.9273 10.4952 25.011 10.4829C25.1775 10.4585 25.3996 10.4197 25.6582 10.3588C26.1591 10.2408 26.8777 10.021 27.6092 9.60476C28.3453 9.18585 29.1938 8.5096 29.7732 7.44671C30.373 6.34646 30.555 5.06811 30.3201 3.70582L24.9655 4.62904ZM21.8031 8.39916L22.8013 12.9293L28.1076 11.7601L27.1095 7.22996L21.8031 8.39916Z" fill="#FCC436" mask="url(#path-2-outside-1_15_1134)"/>
<path d="M13.724 22.0475H21.4276C21.5608 22.0475 21.6884 22.1032 21.7745 22.2048C22.1893 22.6943 23.3147 24.3343 22.8004 27.2486C22.7105 27.7583 22.2299 28.1019 21.7209 28.0081C20.0182 27.6943 16.1739 27.1316 13.5114 27.8482C12.9697 27.994 12.4306 27.6258 12.3636 27.0689C12.2157 25.8386 12.209 23.822 13.3483 22.235C13.4341 22.1155 13.577 22.0475 13.724 22.0475Z" fill="#FCC436"/>
<path d="M14.4021 24.1425C14.4021 24.1425 14.0658 25.5411 15.947 25.5758" stroke="white" stroke-width="0.905605" stroke-miterlimit="10" stroke-linecap="round" stroke-linejoin="round"/>
<path d="M14.0399 29.6236C14.0399 29.6236 17.1496 33.5011 20.7967 29.7772" stroke="#FCC436" stroke-width="2.71681" stroke-miterlimit="10" stroke-linecap="round" stroke-linejoin="round"/>
<path d="M8.35277 9.38698C6.85177 8.42805 4.73811 7.13989 2.26133 7.74961C2.26133 7.74961 1.53189 14.6216 9.78597 15.3511L10.3803 15.7826C10.3803 15.7826 9.25825 20.151 10.9984 23.6701" stroke="#FCC436" stroke-width="2.71681" stroke-miterlimit="10" stroke-linecap="round" stroke-linejoin="round"/>
<path d="M22.2495 14.7065C22.2495 14.7065 23.7423 14.5992 24.1249 14.2167C24.5075 13.8341 24.5075 13.2137 24.1249 12.8312C23.7423 12.4486 23.1219 12.4486 22.7394 12.8312C22.3568 13.2137 22.2495 14.7065 22.2495 14.7065Z" fill="#FCC436"/>
<path d="M20.9243 24.1215C20.9243 24.1215 21.2606 25.5201 19.3794 25.5548" stroke="white" stroke-width="0.905605" stroke-miterlimit="10" stroke-linecap="round" stroke-linejoin="round"/>
<path d="M26.6029 9.29102C28.0957 8.36618 30.1633 7.13484 32.5752 7.72859C32.5752 7.72859 33.3046 14.6006 25.0506 15.33L24.4562 15.7616C24.4562 15.7616 25.6996 19.6692 23.9595 23.1884" stroke="#FCC436" stroke-width="2.71681" stroke-miterlimit="10" stroke-linecap="round" stroke-linejoin="round"/>
</svg>
