<svg width="25" height="32" viewBox="0 0 25 32" fill="none" xmlns="http://www.w3.org/2000/svg">
<path d="M16.9502 8.38573C16.9502 8.38573 19.0643 4.88235 18.0978 4.39912C17.1314 3.9159 15.6817 4.88235 15.6817 4.88235C15.6817 4.88235 16.6481 1.49977 14.7152 1.49977C12.7823 1.49977 12.2991 3.43267 12.2991 3.43267C12.2991 3.43267 11.5951 -0.576163 8.91654 0.533322C7.24265 1.22675 6.50042 2.94945 8.91654 7.7817" fill="#FCC436"/>
<path d="M8.90492 18.1084C9.65514 18.1084 10.2633 17.5002 10.2633 16.75C10.2633 15.9998 9.65514 15.3916 8.90492 15.3916C8.15469 15.3916 7.54651 15.9998 7.54651 16.75C7.54651 17.5002 8.15469 18.1084 8.90492 18.1084Z" fill="#FCC436"/>
<path d="M17.603 18.1084C18.3533 18.1084 18.9614 17.5002 18.9614 16.75C18.9614 15.9998 18.3533 15.3916 17.603 15.3916C16.8528 15.3916 16.2446 15.9998 16.2446 16.75C16.2446 17.5002 16.8528 18.1084 17.603 18.1084Z" fill="#FCC436"/>
<path d="M12.8718 18.291C12.8718 18.291 21.5698 17.8077 12.8718 26.989C12.8718 26.989 4.17373 18.291 12.8718 18.291Z" fill="#FCC436"/>
<path d="M12.862 28.4387C12.9073 29.7963 12.908 29.7963 12.9087 29.7963L12.9105 29.7962L12.915 29.7961L12.928 29.7956L12.9696 29.7937C13.004 29.792 13.0518 29.7894 13.1119 29.7855C13.2319 29.7776 13.4013 29.7644 13.6109 29.7427C14.0292 29.6993 14.6128 29.6214 15.288 29.4822C16.62 29.2078 18.3953 28.6777 19.9579 27.636C21.5474 26.5763 22.9556 24.9547 23.374 22.5563C23.7821 20.2163 23.2083 17.3565 21.3474 13.8579C21.327 13.8067 21.2989 13.7382 21.2626 13.6548C21.1871 13.4813 21.0758 13.2418 20.9254 12.9582C20.6262 12.3939 20.1637 11.6393 19.5076 10.8795C18.1899 9.35379 16.0318 7.75127 12.862 7.75127C9.69228 7.75127 7.53415 9.35379 6.21646 10.8795C5.56032 11.6393 5.09785 12.3939 4.79862 12.9582C4.64824 13.2418 4.53697 13.4813 4.46146 13.6548C4.42517 13.7382 4.397 13.8067 4.37661 13.8579C2.51573 17.3565 1.94196 20.2163 2.3501 22.5563C2.76843 24.9547 4.17664 26.5763 5.76619 27.636C7.32872 28.6777 9.10405 29.2078 10.436 29.4822C11.1112 29.6214 11.6948 29.6993 12.1132 29.7427C12.3228 29.7644 12.4921 29.7776 12.6122 29.7855C12.6722 29.7894 12.72 29.792 12.7545 29.7937L12.796 29.7956L12.8091 29.7961L12.8136 29.7962L12.8153 29.7963C12.8161 29.7963 12.8168 29.7963 12.862 28.4387ZM12.862 28.4387L12.8168 29.7963C12.8469 29.7973 12.8771 29.7973 12.9073 29.7963L12.862 28.4387Z" stroke="#FCC436" stroke-width="2.71681" stroke-miterlimit="10" stroke-linecap="round" stroke-linejoin="round"/>
</svg>
