<svg width="30" height="30" viewBox="0 0 30 30" fill="none" xmlns="http://www.w3.org/2000/svg">
<g clip-path="url(#clip0_2906_12)">
<path d="M23.8741 -0.149662L23.8738 -0.149706C23.8072 -0.163016 23.1104 -0.296588 22.1907 -0.232872C21.2725 -0.169265 20.109 0.0926841 19.1336 0.891766C18.355 1.52962 17.8299 2.387 17.5553 3.43842C15.9442 2.86599 14.1382 2.83573 12.4451 3.43861C12.1705 2.38715 11.6454 1.5297 10.8667 0.891816C9.89125 0.0927449 8.72772 -0.169234 7.80958 -0.232864C6.88989 -0.296601 6.19305 -0.163058 6.12628 -0.149676L6.12619 -0.149657C5.44999 -0.0138614 5.00858 0.644867 5.1445 1.32236L5.1445 1.32238C5.28003 1.99762 5.93467 2.43767 6.6116 2.30288C6.64551 2.29683 7.05688 2.226 7.58678 2.25519C8.145 2.28595 8.79848 2.4258 9.28905 2.83133C9.75573 3.21713 10.0537 3.84496 10.1434 4.74557C9.60343 5.19228 9.12444 5.714 8.72286 6.29814H2.41475C1.72438 6.29814 1.16467 6.85785 1.16467 7.54822C1.16467 10.3607 3.60061 12.5488 6.36601 12.2792C6.31657 12.4224 6.25758 12.5934 6.18932 12.7911C5.79395 13.9365 5.08789 15.9821 4.12832 18.7613C3.90296 19.4139 4.24933 20.1256 4.90199 20.3508C5.55467 20.5761 6.26631 20.2297 6.49154 19.5772L6.83617 18.5791L10.1646 26.9663C10.9536 28.9547 12.8444 30.2422 14.9825 30.2493L14.9845 30.2495C14.9883 30.2497 14.9937 30.2499 15.0002 30.2499C15.0032 30.2499 15.0061 30.2498 15.0086 30.2498C15.0114 30.2497 15.0138 30.2496 15.0158 30.2495L15.0178 30.2493C17.1555 30.2422 19.0463 28.9548 19.8356 26.9664L19.8356 26.9664L23.164 18.5793L23.5085 19.5772L23.5085 19.5772C23.7339 20.23 24.4456 20.5761 25.098 20.3508L25.0981 20.3508C25.7507 20.1255 26.097 19.4139 25.8717 18.7613L25.6354 18.8429L25.8717 18.7613C25.6484 18.1147 25.4544 17.5528 25.2839 17.0594C24.3136 14.25 24.1096 13.6595 23.6473 12.2805C26.4153 12.543 28.8354 10.3476 28.8354 7.54822C28.8354 6.85785 28.2757 6.29814 27.5853 6.29814H21.28C20.8911 5.70054 20.4412 5.20979 19.8574 4.74019C19.9477 3.84243 20.2455 3.21631 20.7111 2.83128C21.2017 2.42575 21.8553 2.28586 22.4131 2.25499C22.9496 2.22529 23.3634 2.29831 23.3824 2.30167C23.383 2.30178 23.3832 2.30181 23.383 2.30177L23.4312 2.05646L23.3822 2.30162C24.0595 2.43696 24.7178 1.99883 24.8536 1.32198C24.9895 0.645006 24.5509 -0.013799 23.8741 -0.149662ZM17.4895 21.5873L17.4895 21.5873C18.1883 20.7802 17.6156 19.5188 16.5445 19.5188H13.4558C12.3885 19.5188 11.8096 20.7774 12.5108 21.5873L12.5108 21.5873L13.7501 23.0182V27.4461C13.1877 27.1541 12.7351 26.6656 12.4885 26.0442L12.2562 26.1364L12.4885 26.0442L8.08747 14.9541C9.64527 10.4424 9.73673 10.1783 9.82737 9.9138C9.84712 9.8562 9.86682 9.79859 9.90163 9.69708L9.90166 9.69699C10.8603 6.89744 12.9328 5.48481 14.9747 5.4584C17.0127 5.43203 19.1018 6.78619 20.0981 9.69564L20.0981 9.69568C20.2809 10.2293 20.9957 12.2982 21.4814 13.7037C21.6829 14.2868 21.8449 14.7558 21.9131 14.9536L17.5118 26.0441C17.2651 26.6655 16.8126 27.154 16.2502 27.4461V23.0182L17.4895 21.5873ZM7.41987 9.2264C6.38647 10.1535 4.78661 9.92107 4.04265 8.7983H7.56658C7.55279 8.83854 7.53879 8.87943 7.52453 8.92109C7.49128 9.01819 7.4566 9.11945 7.41987 9.2264ZM25.9573 8.7983C25.227 9.8991 23.666 10.1529 22.6227 9.26255C22.5656 9.10245 22.5094 8.94783 22.454 8.7983H25.9573Z" fill="#FCC436" stroke="#FCC436" stroke-width="0.5"/>
<path d="M17.7549 15.9374C18.4856 15.9374 19.0779 15.3451 19.0779 14.6145C19.0779 13.8839 18.4856 13.2916 17.7549 13.2916C17.0243 13.2916 16.432 13.8839 16.432 14.6145C16.432 15.3451 17.0243 15.9374 17.7549 15.9374Z" fill="#FCC436"/>
<path d="M12.2855 15.9374C13.0161 15.9374 13.6084 15.3451 13.6084 14.6145C13.6084 13.8839 13.0161 13.2916 12.2855 13.2916C11.5548 13.2916 10.9625 13.8839 10.9625 14.6145C10.9625 15.3451 11.5548 15.9374 12.2855 15.9374Z" fill="#FCC436"/>
</g>
<defs>
<clipPath id="clip0_2906_12">
<rect width="30" height="30" fill="white"/>
</clipPath>
</defs>
</svg>
